<svg id="visual" viewBox="0 0 900 600" width="900" height="600" xmlns="http://www.w3.org/2000/svg" xmlns:xlink="http://www.w3.org/1999/xlink" version="1.1"><rect x="0" y="0" width="900" height="600" fill="#ffffff"></rect><defs><linearGradient id="grad1_0" x1="33.3%" y1="0%" x2="100%" y2="100%"><stop offset="20%" stop-color="#ffffff" stop-opacity="1"></stop><stop offset="80%" stop-color="#ffffff" stop-opacity="1"></stop></linearGradient></defs><defs><linearGradient id="grad2_0" x1="0%" y1="0%" x2="66.7%" y2="100%"><stop offset="20%" stop-color="#ffffff" stop-opacity="1"></stop><stop offset="80%" stop-color="#ffffff" stop-opacity="1"></stop></linearGradient></defs><g transform="translate(900, 0)"><path d="M0 486.7C-52.3 458 -104.7 429.2 -170.7 412.1C-236.7 394.9 -316.4 389.3 -344.2 344.2C-372 299.1 -348 214.4 -363.1 150.4C-378.2 86.4 -432.5 43.2 -486.7 0L0 0Z" fill="#3c8f8f"></path></g><g transform="translate(0, 600)"><path d="M0 -486.7C69.1 -486.1 138.3 -485.5 186.3 -449.7C234.3 -413.9 261.2 -342.9 290.6 -290.6C320.1 -238.4 352.1 -204.9 385.3 -159.6C418.4 -114.3 452.6 -57.1 486.7 0L0 0Z" fill="#3c8f8f"></path></g></svg>