<svg id="visual" viewBox="0 0 900 600" width="900" height="600" xmlns="http://www.w3.org/2000/svg" xmlns:xlink="http://www.w3.org/1999/xlink" version="1.1"><rect x="0" y="0" width="900" height="600" fill="#ffffff"></rect><defs><linearGradient id="grad1_0" x1="33.3%" y1="0%" x2="100%" y2="100%"><stop offset="20%" stop-color="#ffffff" stop-opacity="1"></stop><stop offset="80%" stop-color="#ffffff" stop-opacity="1"></stop></linearGradient></defs><defs><linearGradient id="grad2_0" x1="0%" y1="0%" x2="66.7%" y2="100%"><stop offset="20%" stop-color="#ffffff" stop-opacity="1"></stop><stop offset="80%" stop-color="#ffffff" stop-opacity="1"></stop></linearGradient></defs><g transform="translate(900, 0)"><path d="M0 405.6C-60.3 406.7 -120.5 407.8 -155.2 374.7C-189.9 341.7 -199 274.5 -236.2 236.2C-273.3 197.8 -338.5 188.4 -371.4 153.8C-404.3 119.3 -405 59.6 -405.6 0L0 0Z" fill="#3c9090"></path></g><g transform="translate(0, 600)"><path d="M0 -405.6C44.1 -374.4 88.3 -343.1 133.9 -323.4C179.6 -303.6 226.8 -295.2 270.1 -270.1C313.4 -245 352.8 -203 374.7 -155.2C396.7 -107.4 401.2 -53.7 405.6 0L0 0Z" fill="#3c9090"></path></g></svg>