<svg id="visual" viewBox="0 0 960 540" width="960" height="540" xmlns="http://www.w3.org/2000/svg" xmlns:xlink="http://www.w3.org/1999/xlink" version="1.1"><rect x="0" y="0" width="960" height="540" fill="#ffffff"></rect><defs><linearGradient id="grad1_0" x1="43.8%" y1="100%" x2="100%" y2="0%"><stop offset="14.444444444444446%" stop-color="#ffffff" stop-opacity="1"></stop><stop offset="85.55555555555554%" stop-color="#ffffff" stop-opacity="1"></stop></linearGradient></defs><defs><linearGradient id="grad2_0" x1="0%" y1="100%" x2="56.3%" y2="0%"><stop offset="14.444444444444446%" stop-color="#ffffff" stop-opacity="1"></stop><stop offset="85.55555555555554%" stop-color="#ffffff" stop-opacity="1"></stop></linearGradient></defs><g transform="translate(960, 540)"><path d="M-432 0C-360.7 -40.5 -289.5 -81 -262.4 -151.5C-235.3 -222 -252.4 -322.4 -216 -374.1C-179.6 -425.9 -89.8 -428.9 0 -432L0 0Z" fill="#3c9090"></path></g><g transform="translate(0, 0)"><path d="M432 0C378.3 50.7 324.6 101.3 295.3 170.5C266 239.7 261.2 327.4 216 374.1C170.8 420.8 85.4 426.4 0 432L0 0Z" fill="#3c9090"></path></g></svg>