<!DOCTYPE svg PUBLIC "-//W3C//DTD SVG 1.1//EN" "http://www.w3.org/Graphics/SVG/1.1/DTD/svg11.dtd">

<!-- Uploaded to: SVG Repo, www.svgrepo.com, Transformed by: SVG Repo Mixer Tools -->
<svg fill="#ffffff" height="140px" width="140px" version="1.1" xmlns="http://www.w3.org/2000/svg" viewBox="-117.5 -117.5 705.00 705.00" xmlns:xlink="http://www.w3.org/1999/xlink" enable-background="new 0 0 470 470" stroke="#ffffff">

<g id="SVGRepo_bgCarrier" stroke-width="0" transform="translate(0,0), scale(1)">

<rect x="-117.5" y="-117.5" width="705.00" height="705.00" rx="352.5" fill="#51b7b7" strokewidth="0"/>

</g>

<g id="SVGRepo_tracerCarrier" stroke-linecap="round" stroke-linejoin="round"/>

<g id="SVGRepo_iconCarrier"> <g> <g> <path d="m307.502,212.5c0-39.977-32.523-72.5-72.5-72.5s-72.5,32.523-72.5,72.5c0,18.774 7.202,36.58 20.003,50-12.801,13.42-20.003,31.226-20.003,50 0,39.977 32.523,72.5 72.5,72.5 13.47,0 26.629-3.732 38.057-10.793 3.523-2.177 4.615-6.798 2.438-10.322-2.179-3.523-6.8-4.614-10.323-2.438-9.057,5.596-19.489,8.554-30.172,8.554-31.706,0-57.5-25.794-57.5-57.5 0-17.137 7.569-33.26 20.768-44.233 1.714-1.425 2.705-3.538 2.705-5.767s-0.991-4.342-2.705-5.767c-13.198-10.974-20.768-27.097-20.768-44.233 0-31.706 25.794-57.5 57.5-57.5s57.5,25.794 57.5,57.5c0,17.137-7.569,33.26-20.768,44.233-1.714,1.425-2.705,3.538-2.705,5.767s0.991,4.342 2.705,5.767c13.198,10.974 20.768,27.097 20.768,44.233 0,10.684-2.958,21.116-8.553,30.172-2.178,3.523-1.086,8.146 2.438,10.322 3.521,2.178 8.145,1.086 10.322-2.438 7.061-11.427 10.793-24.586 10.793-38.057 0-18.774-7.202-36.58-20.003-50 12.801-13.42 20.003-31.226 20.003-50z"/> <path d="m235.002,355c23.435,0 42.5-19.065 42.5-42.5s-19.065-42.5-42.5-42.5-42.5,19.065-42.5,42.5 19.065,42.5 42.5,42.5zm0-70c15.163,0 27.5,12.337 27.5,27.5s-12.337,27.5-27.5,27.5-27.5-12.337-27.5-27.5 12.337-27.5 27.5-27.5z"/> <path d="m277.502,212.5c0-23.435-19.065-42.5-42.5-42.5s-42.5,19.065-42.5,42.5 19.065,42.5 42.5,42.5 42.5-19.065 42.5-42.5zm-70,0c0-15.163 12.337-27.5 27.5-27.5s27.5,12.337 27.5,27.5-12.337,27.5-27.5,27.5-27.5-12.337-27.5-27.5z"/> <path d="m425,372.427c-4.143,0-7.5,3.357-7.5,7.5v75.073h-365v-7.5c0-4.143-3.357-7.5-7.5-7.5s-7.5,3.357-7.5,7.5v15c0,4.143 3.357,7.5 7.5,7.5h380c4.143,0 7.5-3.357 7.5-7.5v-82.573c0-4.143-3.357-7.5-7.5-7.5z"/> <path d="m425,30h-39.998v-22.5c0-4.143-3.357-7.5-7.5-7.5s-7.5,3.357-7.5,7.5v22.5h-80v-22.5c0-4.143-3.357-7.5-7.5-7.5s-7.5,3.357-7.5,7.5v22.5h-80v-22.5c0-4.143-3.357-7.5-7.5-7.5s-7.5,3.357-7.5,7.5v22.5h-80v-22.5c0-4.143-3.357-7.5-7.5-7.5s-7.5,3.357-7.5,7.5v22.5h-40.002c-4.143,0-7.5,3.357-7.5,7.5v380c0,4.143 3.357,7.5 7.5,7.5h300c0.251,0 0.501-0.013 0.749-0.038 0.189-0.019 0.374-0.051 0.558-0.083 0.056-0.01 0.113-0.015 0.169-0.026 0.218-0.044 0.432-0.099 0.643-0.162 0.022-0.006 0.044-0.01 0.066-0.017 0.213-0.065 0.422-0.141 0.626-0.224 0.021-0.008 0.042-0.014 0.063-0.023 0.195-0.081 0.384-0.173 0.57-0.269 0.031-0.016 0.063-0.029 0.094-0.045 0.171-0.092 0.335-0.194 0.498-0.298 0.044-0.028 0.09-0.052 0.133-0.081 0.149-0.1 0.29-0.209 0.431-0.319 0.053-0.041 0.108-0.077 0.16-0.12 0.146-0.12 0.284-0.25 0.421-0.381 0.04-0.038 0.083-0.071 0.122-0.11l80-80c0.039-0.039 0.072-0.082 0.11-0.122 0.131-0.137 0.261-0.275 0.381-0.421 0.043-0.052 0.08-0.109 0.122-0.162 0.109-0.14 0.218-0.281 0.317-0.428 0.03-0.045 0.055-0.093 0.084-0.139 0.103-0.161 0.204-0.324 0.295-0.493 0.016-0.031 0.029-0.063 0.045-0.093 0.097-0.186 0.188-0.376 0.27-0.571 0.008-0.019 0.014-0.039 0.021-0.058 0.083-0.206 0.16-0.416 0.226-0.631 0.007-0.022 0.011-0.045 0.017-0.067 0.062-0.211 0.118-0.424 0.161-0.642 0.012-0.06 0.017-0.122 0.028-0.183 0.031-0.18 0.063-0.36 0.081-0.544 0.025-0.248 0.038-0.497 0.038-0.749v-300c0.001-4.144-3.356-7.501-7.499-7.501zm-372.5,85h290.834c4.143,0 7.5-3.357 7.5-7.5s-3.357-7.5-7.5-7.5h-290.834v-55h32.502v22.5c0,4.143 3.357,7.5 7.5,7.5s7.5-3.357 7.5-7.5v-22.5h80v22.5c0,4.143 3.357,7.5 7.5,7.5s7.5-3.357 7.5-7.5v-22.5h80v22.5c0,4.143 3.357,7.5 7.5,7.5s7.5-3.357 7.5-7.5v-22.5h80v17.5c0,4.143 3.357,7.5 7.5,7.5s7.5-3.357 7.5-7.5v-17.5h32.498v55h-44.166c-4.143,0-7.5,3.357-7.5,7.5s3.357,7.5 7.5,7.5h44.166v215h-72.5c-4.143,0-7.5,3.357-7.5,7.5v72.5h-285v-295zm354.394,230l-54.394,54.394v-54.394h54.394z"/> </g> </g> </g>

</svg>