<svg id="visual" viewBox="0 0 900 600" width="900" height="600" xmlns="http://www.w3.org/2000/svg" xmlns:xlink="http://www.w3.org/1999/xlink" version="1.1"><path d="M0 223L16.7 228C33.3 233 66.7 243 100 245C133.3 247 166.7 241 200 231C233.3 221 266.7 207 300 200C333.3 193 366.7 193 400 203C433.3 213 466.7 233 500 239C533.3 245 566.7 237 600 231C633.3 225 666.7 221 700 222C733.3 223 766.7 229 800 226C833.3 223 866.7 211 883.3 205L900 199L900 0L883.3 0C866.7 0 833.3 0 800 0C766.7 0 733.3 0 700 0C666.7 0 633.3 0 600 0C566.7 0 533.3 0 500 0C466.7 0 433.3 0 400 0C366.7 0 333.3 0 300 0C266.7 0 233.3 0 200 0C166.7 0 133.3 0 100 0C66.7 0 33.3 0 16.7 0L0 0Z" fill="#2c6969"></path><path d="M0 373L16.7 379C33.3 385 66.7 397 100 401C133.3 405 166.7 401 200 393C233.3 385 266.7 373 300 359C333.3 345 366.7 329 400 337C433.3 345 466.7 377 500 389C533.3 401 566.7 393 600 383C633.3 373 666.7 361 700 358C733.3 355 766.7 361 800 365C833.3 369 866.7 371 883.3 372L900 373L900 197L883.3 203C866.7 209 833.3 221 800 224C766.7 227 733.3 221 700 220C666.7 219 633.3 223 600 229C566.7 235 533.3 243 500 237C466.7 231 433.3 211 400 201C366.7 191 333.3 191 300 198C266.7 205 233.3 219 200 229C166.7 239 133.3 245 100 243C66.7 241 33.3 231 16.7 226L0 221Z" fill="#3c9090"></path><path d="M0 601L16.7 601C33.3 601 66.7 601 100 601C133.3 601 166.7 601 200 601C233.3 601 266.7 601 300 601C333.3 601 366.7 601 400 601C433.3 601 466.7 601 500 601C533.3 601 566.7 601 600 601C633.3 601 666.7 601 700 601C733.3 601 766.7 601 800 601C833.3 601 866.7 601 883.3 601L900 601L900 371L883.3 370C866.7 369 833.3 367 800 363C766.7 359 733.3 353 700 356C666.7 359 633.3 371 600 381C566.7 391 533.3 399 500 387C466.7 375 433.3 343 400 335C366.7 327 333.3 343 300 357C266.7 371 233.3 383 200 391C166.7 399 133.3 403 100 399C66.7 395 33.3 383 16.7 377L0 371Z" fill="#2c6969"></path></svg>